<svg width="136" height="469" viewBox="0 0 136 469" fill="none" xmlns="http://www.w3.org/2000/svg">
<g clip-path="url(#clip0_126_5495)">
<mask id="mask0_126_5495" style="mask-type:alpha" maskUnits="userSpaceOnUse" x="44" y="8" width="43" height="27">
<path d="M44.79 8.16113H86.509V34.4435H44.79V8.16113Z" fill="white"/>
</mask>
<g mask="url(#mask0_126_5495)">
<path fill-rule="evenodd" clip-rule="evenodd" d="M44.8254 25.2901C46.1885 27.3412 47.8667 29.305 49.8352 30.8339C50.8207 31.6016 51.8899 32.2619 53.04 32.734C54.1918 33.1842 55.431 33.4604 56.6548 33.6864C59.1149 34.1201 61.6481 34.1526 64.0994 33.6964C66.5553 33.2627 68.9032 32.3493 71.0966 31.1685C73.2846 29.963 75.3334 28.5055 77.1237 26.7647C78.9282 25.0387 80.4683 23.0501 81.8715 20.976C83.234 18.877 84.6231 16.751 85.5784 14.4597C85.7979 13.8837 86.0051 13.2942 86.07 12.7012C86.0989 12.4062 86.0953 12.1123 86.0228 11.8444C85.949 11.5706 85.7915 11.3753 85.5684 11.1233C85.2285 10.6719 84.6437 10.3627 84.1304 10.0228C83.5993 9.69471 83.0558 9.37961 82.5088 9.0763L82.5065 9.07571L82.4811 9.05978C81.881 8.66442 81.0566 8.51808 80.2907 8.53932C79.9083 8.55585 79.4929 8.58476 79.1501 8.69865C78.7892 8.82822 78.4512 9.01425 78.1487 9.24979C76.906 10.2087 75.937 11.5364 75.092 12.8759L75.0979 12.8641L70.7608 21.6481C69.0519 24.4758 66.5004 26.77 63.4874 28.0942C61.976 28.7476 60.3629 29.1349 58.7195 29.2389C57.0826 29.317 55.4419 29.2135 53.8277 28.9303C50.623 28.3503 47.4613 27.1353 44.8254 25.2913V25.2901ZM44.79 25.2505C47.5336 27.044 50.6171 28.2532 53.8484 28.8029C55.4534 29.0713 57.0862 29.1616 58.7101 29.0702C60.3305 28.9559 61.9188 28.562 63.4048 27.9059C66.3611 26.5865 68.869 24.2757 70.5153 21.52L74.7982 12.7171L74.8047 12.7053C75.6662 11.3257 76.621 9.98621 77.9321 8.95888C78.2648 8.69692 78.6373 8.49011 79.0356 8.34637C79.461 8.20711 79.8605 8.18586 80.2807 8.16285C81.1121 8.14515 81.9618 8.25903 82.7212 8.74999L82.6947 8.73287C83.2512 9.03554 83.8003 9.35152 84.3416 9.68055C84.8686 10.0311 85.4486 10.3102 85.8882 10.8607C86.0835 11.0737 86.3379 11.3829 86.4252 11.7264C86.5202 12.0686 86.5214 12.4132 86.4919 12.7437C86.4211 13.4063 86.2086 14.0194 85.9862 14.6184C85.0143 16.9911 83.6406 19.119 82.2822 21.2492C80.8837 23.3546 79.3336 25.3874 77.4901 27.1435C75.6662 28.9179 73.5749 30.4067 71.3515 31.6329C66.9152 34.1313 61.5767 35.0489 56.5899 34.0405C55.3443 33.7914 54.1151 33.5011 52.9231 33.0178C51.7477 32.5163 50.6655 31.8259 49.6777 31.0316C47.7181 29.4104 46.063 27.453 44.79 25.2511" fill="#231F20"/>
</g>
<mask id="mask1_126_5495" style="mask-type:alpha" maskUnits="userSpaceOnUse" x="82" y="0" width="9" height="9">
<path d="M82.2852 0H90.9276V8.86899H82.2852V0Z" fill="white"/>
</mask>
<g mask="url(#mask1_126_5495)">
<path fill-rule="evenodd" clip-rule="evenodd" d="M82.2911 8.82598C83.0505 7.84349 83.8099 6.87693 84.4614 5.84428C85.1365 4.84173 85.6622 3.73591 86.2889 2.64838C86.5969 2.10668 86.9085 1.56616 87.2814 1.05397C87.4679 0.799051 87.665 0.547674 87.9175 0.329933C88.1618 0.0938986 88.5454 -0.0229383 88.867 0.0024354C89.5397 0.020138 90.1522 0.427297 90.4779 0.976077C90.803 1.53194 90.9157 2.16923 90.9276 2.78764C90.9278 2.79115 90.9273 2.79466 90.9262 2.79798C90.925 2.8013 90.9232 2.80435 90.9208 2.80694C90.9184 2.80953 90.9156 2.81162 90.9124 2.81307C90.9092 2.81452 90.9057 2.8153 90.9022 2.81537C90.8954 2.81539 90.8889 2.81283 90.884 2.80823C90.8791 2.80363 90.8761 2.79732 90.8756 2.79059C90.8284 2.17867 90.6779 1.5638 90.3445 1.06341C90.0111 0.568918 89.4429 0.249091 88.8646 0.267974C88.2604 0.224308 87.9099 0.760105 87.5635 1.25165C87.2289 1.75617 86.9439 2.302 86.663 2.84901C86.1042 3.93063 85.6675 5.12674 84.8998 6.14523C84.1481 7.15073 83.3107 8.08897 82.3282 8.86434C82.3254 8.8664 82.3222 8.86788 82.3188 8.8687C82.3154 8.86952 82.3119 8.86966 82.3084 8.86911C82.305 8.86857 82.3017 8.86734 82.2987 8.86551C82.2957 8.86368 82.2931 8.86127 82.2911 8.85844C82.2828 8.849 82.284 8.83543 82.2911 8.82598Z" fill="#231F20"/>
</g>
<path fill-rule="evenodd" clip-rule="evenodd" d="M85.2828 10.6105C85.2922 9.68113 85.4291 8.77181 85.5654 7.86249C85.7159 6.95553 85.9691 6.06863 86.2098 5.18173C86.4448 4.29193 86.7095 3.41024 87.0035 2.53814C87.1569 2.10384 87.3221 1.67131 87.5174 1.25176C87.7311 0.85876 87.8969 0.362498 88.3648 0.16836C88.379 0.16423 88.3937 0.16954 88.399 0.183112C88.4032 0.194914 88.399 0.209666 88.3861 0.214977L88.3743 0.221468C87.9848 0.415016 87.8349 0.914819 87.6638 1.31431C87.5045 1.73917 87.3747 2.17701 87.2566 2.61781C87.0159 3.49801 86.8045 4.38599 86.6229 5.28027C86.4382 6.17602 86.3036 7.08062 86.0859 7.9687C85.8552 8.85442 85.6451 9.74486 85.3347 10.6188C85.3337 10.6222 85.3319 10.6253 85.3296 10.6281C85.3273 10.6308 85.3245 10.633 85.3213 10.6346C85.3181 10.6362 85.3146 10.6371 85.311 10.6374C85.3074 10.6376 85.3039 10.6371 85.3005 10.6359C85.2899 10.6329 85.2828 10.6211 85.2828 10.6105ZM74.0995 19.6683C74.738 17.8638 75.5027 16.1024 76.428 14.413C76.8971 13.5727 77.3804 12.7254 78.036 11.9919C78.6986 11.308 79.5189 10.5657 80.5373 10.5273C80.5521 10.5261 80.5639 10.5379 80.5651 10.5527C80.5651 10.5645 80.555 10.5751 80.5444 10.5792C79.6493 10.9109 79.022 11.616 78.4396 12.3365C77.8713 13.0741 77.3066 13.8288 76.795 14.6284C75.8037 16.2441 74.9268 17.9447 74.1485 19.6872C74.1473 19.6905 74.1455 19.6935 74.1431 19.6961C74.1407 19.6987 74.1379 19.7008 74.1347 19.7022C74.1315 19.7036 74.128 19.7044 74.1245 19.7045C74.121 19.7045 74.1175 19.7039 74.1143 19.7026C74.108 19.6997 74.103 19.6946 74.1003 19.6883C74.0976 19.682 74.0973 19.6748 74.0995 19.6683Z" fill="#231F20"/>
</g>
<path d="M52.7343 80.7956C52.7103 80.2436 52.5903 79.7636 52.3743 79.3556C52.1703 78.9476 51.8883 78.6056 51.5283 78.3296C51.1683 78.0536 50.7363 77.8496 50.2323 77.7176C49.7403 77.5736 49.2003 77.5016 48.6123 77.5016C48.2523 77.5016 47.8623 77.5436 47.4423 77.6276C47.0343 77.7116 46.6503 77.8616 46.2903 78.0776C45.9423 78.2816 45.6543 78.5636 45.4263 78.9236C45.1983 79.2716 45.0843 79.7096 45.0843 80.2376C45.0843 80.7536 45.2103 81.1736 45.4623 81.4976C45.7143 81.8216 46.0443 82.0856 46.4523 82.2896C46.8603 82.4816 47.3283 82.6376 47.8563 82.7576C48.3843 82.8776 48.9183 82.9916 49.4583 83.0996C50.0103 83.2076 50.5443 83.3396 51.0603 83.4956C51.5883 83.6396 52.0563 83.8436 52.4643 84.1076C52.8843 84.3596 53.2203 84.6956 53.4723 85.1156C53.7243 85.5236 53.8503 86.0396 53.8503 86.6636C53.8503 87.3356 53.7063 87.8996 53.4183 88.3556C53.1303 88.8116 52.7643 89.1836 52.3203 89.4716C51.8883 89.7596 51.4023 89.9636 50.8623 90.0836C50.3343 90.2156 49.8243 90.2816 49.3323 90.2816C48.5763 90.2816 47.8683 90.1976 47.2083 90.0296C46.5483 89.8736 45.9723 89.6156 45.4803 89.2556C44.9883 88.8836 44.5983 88.4096 44.3103 87.8336C44.0343 87.2576 43.9023 86.5556 43.9143 85.7276H44.7063C44.6703 86.4356 44.7723 87.0356 45.0123 87.5276C45.2523 88.0076 45.5823 88.4036 46.0023 88.7156C46.4343 89.0276 46.9383 89.2556 47.5143 89.3996C48.0903 89.5316 48.6963 89.5976 49.3323 89.5976C49.7163 89.5976 50.1243 89.5496 50.5563 89.4536C51.0003 89.3576 51.4023 89.1956 51.7623 88.9676C52.1343 88.7396 52.4403 88.4396 52.6803 88.0676C52.9323 87.6956 53.0583 87.2276 53.0583 86.6636C53.0583 86.1236 52.9323 85.6856 52.6803 85.3496C52.4283 85.0016 52.0923 84.7256 51.6723 84.5216C51.2643 84.3056 50.7963 84.1376 50.2683 84.0176C49.7523 83.8856 49.2183 83.7656 48.6663 83.6576C48.1263 83.5496 47.5923 83.4236 47.0643 83.2796C46.5363 83.1356 46.0683 82.9436 45.6603 82.7036C45.2523 82.4516 44.9223 82.1336 44.6703 81.7496C44.4183 81.3536 44.2923 80.8496 44.2923 80.2376C44.2923 79.6256 44.4183 79.1036 44.6703 78.6716C44.9343 78.2276 45.2703 77.8736 45.6783 77.6096C46.0983 77.3336 46.5663 77.1356 47.0823 77.0156C47.5983 76.8836 48.1083 76.8176 48.6123 76.8176C49.2843 76.8176 49.9083 76.8956 50.4843 77.0516C51.0723 77.1956 51.5823 77.4296 52.0143 77.7536C52.4583 78.0656 52.8123 78.4736 53.0763 78.9776C53.3403 79.4816 53.4903 80.0876 53.5263 80.7956H52.7343ZM58.3742 82.8476H58.4102C58.4822 82.6196 58.6022 82.3676 58.7702 82.0916C58.9382 81.8156 59.1602 81.5636 59.4362 81.3356C59.7122 81.0956 60.0422 80.8976 60.4262 80.7416C60.8222 80.5856 61.2722 80.5076 61.7762 80.5076C62.4842 80.5076 63.0962 80.6396 63.6122 80.9036C64.1402 81.1676 64.5722 81.5216 64.9082 81.9656C65.2562 82.4096 65.5142 82.9256 65.6822 83.5136C65.8502 84.1016 65.9342 84.7196 65.9342 85.3676C65.9342 86.0756 65.8502 86.7236 65.6822 87.3116C65.5142 87.8996 65.2562 88.4096 64.9082 88.8416C64.5722 89.2616 64.1402 89.5916 63.6122 89.8316C63.0962 90.0716 62.4842 90.1916 61.7762 90.1916C61.0082 90.1916 60.3242 90.0236 59.7242 89.6876C59.1242 89.3516 58.6862 88.8056 58.4102 88.0496H58.3742V93.2876H57.6902V80.7236H58.3742V82.8476ZM61.7762 89.5976C62.3762 89.5976 62.8922 89.4836 63.3242 89.2556C63.7682 89.0276 64.1282 88.7216 64.4042 88.3376C64.6922 87.9536 64.9022 87.5096 65.0342 87.0056C65.1782 86.4896 65.2502 85.9436 65.2502 85.3676C65.2502 84.8396 65.1842 84.3236 65.0522 83.8196C64.9202 83.3036 64.7162 82.8476 64.4402 82.4516C64.1642 82.0436 63.8042 81.7196 63.3602 81.4796C62.9282 81.2276 62.4002 81.1016 61.7762 81.1016C61.1642 81.1016 60.6422 81.2216 60.2102 81.4616C59.7782 81.7016 59.4242 82.0196 59.1482 82.4156C58.8842 82.8116 58.6922 83.2676 58.5722 83.7836C58.4522 84.2876 58.3922 84.8156 58.3922 85.3676C58.3922 85.9196 58.4462 86.4536 58.5542 86.9696C58.6622 87.4736 58.8422 87.9236 59.0942 88.3196C59.3582 88.7036 59.7062 89.0156 60.1382 89.2556C60.5822 89.4836 61.1282 89.5976 61.7762 89.5976ZM69.6622 78.9776V77.1236H70.3462V78.9776H69.6622ZM69.6622 89.9756V80.7236H70.3462V89.9756H69.6622ZM81.4596 83.5856C81.4236 83.1776 81.3156 82.8176 81.1356 82.5056C80.9676 82.1936 80.7456 81.9356 80.4696 81.7316C80.1936 81.5276 79.8696 81.3716 79.4976 81.2636C79.1376 81.1556 78.7476 81.1016 78.3276 81.1016C77.7516 81.1016 77.2416 81.2216 76.7976 81.4616C76.3536 81.6896 75.9816 82.0016 75.6816 82.3976C75.3816 82.7816 75.1536 83.2256 74.9976 83.7296C74.8416 84.2216 74.7636 84.7316 74.7636 85.2596C74.7636 85.8836 74.8356 86.4596 74.9796 86.9876C75.1236 87.5156 75.3456 87.9776 75.6456 88.3736C75.9456 88.7576 76.3176 89.0576 76.7616 89.2736C77.2056 89.4896 77.7276 89.5976 78.3276 89.5976C78.7596 89.5976 79.1556 89.5256 79.5156 89.3816C79.8876 89.2376 80.2116 89.0396 80.4876 88.7876C80.7756 88.5356 81.0096 88.2356 81.1896 87.8876C81.3696 87.5276 81.4896 87.1376 81.5496 86.7176H82.2336C82.1616 87.2696 82.0116 87.7616 81.7836 88.1936C81.5556 88.6256 81.2676 88.9916 80.9196 89.2916C80.5716 89.5796 80.1756 89.8016 79.7316 89.9576C79.2876 90.1136 78.8196 90.1916 78.3276 90.1916C77.5716 90.1916 76.9236 90.0596 76.3836 89.7956C75.8556 89.5196 75.4176 89.1536 75.0696 88.6976C74.7336 88.2416 74.4816 87.7196 74.3136 87.1316C74.1576 86.5316 74.0796 85.9076 74.0796 85.2596C74.0796 84.6116 74.1696 83.9996 74.3496 83.4236C74.5416 82.8476 74.8176 82.3436 75.1776 81.9116C75.5376 81.4796 75.9816 81.1376 76.5096 80.8856C77.0376 80.6336 77.6436 80.5076 78.3276 80.5076C78.8316 80.5076 79.2996 80.5736 79.7316 80.7056C80.1756 80.8256 80.5656 81.0116 80.9016 81.2636C81.2496 81.5156 81.5316 81.8396 81.7476 82.2356C81.9636 82.6196 82.0956 83.0696 82.1436 83.5856H81.4596ZM84.6816 80.7236H85.4916L88.9296 89.1656L92.0976 80.7236H92.8716L88.9116 90.9656C88.7196 91.4216 88.5396 91.8116 88.3716 92.1356C88.2156 92.4716 88.0356 92.7176 87.8316 92.8736C87.5916 93.0656 87.3036 93.1796 86.9676 93.2156C86.6436 93.2636 86.2116 93.2876 85.6716 93.2876V92.6936C86.1636 92.6936 86.5476 92.6516 86.8236 92.5676C87.0996 92.4956 87.3576 92.3396 87.5976 92.0996C87.7296 91.9676 87.8676 91.7216 88.0116 91.3616C88.1556 91.0136 88.3356 90.5336 88.5516 89.9216L84.6816 80.7236Z" fill="black"/>
<path fill-rule="evenodd" clip-rule="evenodd" d="M76.5056 205.865L87.4921 178.999L77.624 206.296C77.5973 206.37 77.5562 206.438 77.5032 206.496C77.4501 206.554 77.3862 206.601 77.3149 206.635C77.2437 206.668 77.1666 206.687 77.088 206.691C77.0094 206.694 76.9308 206.683 76.8568 206.656C76.7828 206.629 76.7148 206.588 76.6567 206.535C76.5985 206.482 76.5514 206.418 76.518 206.347C76.4846 206.275 76.4656 206.198 76.4619 206.12C76.4583 206.041 76.4703 205.963 76.497 205.889L76.5056 205.865Z" fill="#010202"/>
<path d="M62.394 206.934C62.394 206.934 52.8019 204.561 49.3837 200.668C45.9674 196.773 40.457 191.266 40.932 168C40.932 168 44.5415 164.297 63.7238 174.648M77.2937 205.446C76.7226 206.871 78.5369 217.19 78.5369 217.19C78.5369 217.19 71.1303 212.348 67.4275 203.421C63.7228 194.494 65.1487 192.69 65.4333 187.467C65.717 182.244 70.5259 174.094 73.3625 171.371C75.4062 169.408 82.2482 164.251 85.9625 161.484C86.2787 161.249 86.6396 161.081 87.023 160.99C87.4064 160.899 87.8044 160.887 88.1926 160.954C88.5808 161.022 88.9511 161.169 89.2809 161.384C89.6107 161.6 89.8931 161.881 90.1107 162.209C94.4151 168.644 96.8767 176.214 96.7158 183.955C96.6206 188.546 95.6069 193.175 92.617 196.237C92.617 196.237 85.5655 203.041 79.8666 203.705C74.1697 204.37 77.9496 214.77 77.9496 214.77L77.2937 205.446Z" stroke="#010202" stroke-width="0.5" stroke-linecap="round" stroke-linejoin="round"/>
<path fill-rule="evenodd" clip-rule="evenodd" d="M52.345 178.322C53.7546 179.719 55.1013 181.178 56.381 182.695C57.0225 183.454 57.7031 184.193 58.2095 185.066C58.674 185.941 59.2223 186.87 59.2071 187.936C59.207 187.946 59.2036 187.955 59.1977 187.963C59.1917 187.97 59.1834 187.975 59.1741 187.977C59.1648 187.98 59.155 187.979 59.1463 187.975C59.1377 187.971 59.1306 187.964 59.1262 187.955L59.1233 187.948C58.674 187.071 58.081 186.32 57.4956 185.54C56.9159 184.759 56.4019 183.923 55.8403 183.115C54.686 181.512 53.4994 179.933 52.2812 178.379C52.2777 178.374 52.2751 178.369 52.2735 178.364C52.272 178.358 52.2715 178.353 52.2723 178.347C52.273 178.341 52.2748 178.336 52.2777 178.331C52.2805 178.326 52.2843 178.322 52.2889 178.319C52.297 178.312 52.3073 178.309 52.3177 178.31C52.3281 178.31 52.3378 178.315 52.345 178.322Z" fill="#010202"/>
<path d="M28.4726 272.292H28.5086L32.9546 260.124H33.7466L28.9406 272.976H28.0226L23.2346 260.124H24.0626L28.4726 272.292ZM35.9807 268.44V268.548C35.9807 269.088 36.0527 269.604 36.1967 270.096C36.3407 270.588 36.5507 271.02 36.8267 271.392C37.1147 271.764 37.4687 272.058 37.8887 272.274C38.3207 272.49 38.8187 272.598 39.3827 272.598C40.3067 272.598 41.0387 272.358 41.5787 271.878C42.1187 271.386 42.4907 270.708 42.6947 269.844H43.3787C43.1747 270.924 42.7307 271.752 42.0467 272.328C41.3747 272.904 40.4807 273.192 39.3647 273.192C38.6807 273.192 38.0807 273.072 37.5647 272.832C37.0607 272.58 36.6347 272.244 36.2867 271.824C35.9507 271.392 35.6987 270.888 35.5307 270.312C35.3627 269.724 35.2787 269.094 35.2787 268.422C35.2787 267.774 35.3627 267.156 35.5307 266.568C35.7107 265.968 35.9747 265.446 36.3227 265.002C36.6707 264.546 37.1027 264.186 37.6187 263.922C38.1467 263.646 38.7647 263.508 39.4727 263.508C40.1207 263.508 40.6907 263.628 41.1827 263.868C41.6867 264.108 42.1067 264.438 42.4427 264.858C42.7787 265.266 43.0307 265.746 43.1987 266.298C43.3787 266.838 43.4687 267.42 43.4687 268.044C43.4687 268.104 43.4627 268.176 43.4507 268.26C43.4507 268.332 43.4507 268.392 43.4507 268.44H35.9807ZM42.7667 267.846C42.7427 267.342 42.6587 266.868 42.5147 266.424C42.3707 265.968 42.1547 265.572 41.8667 265.236C41.5907 264.888 41.2487 264.612 40.8407 264.408C40.4447 264.204 39.9887 264.102 39.4727 264.102C38.9207 264.102 38.4347 264.21 38.0147 264.426C37.5947 264.63 37.2407 264.906 36.9527 265.254C36.6647 265.59 36.4427 265.986 36.2867 266.442C36.1307 266.898 36.0347 267.366 35.9987 267.846H42.7667ZM54.6646 263.724V272.49C54.6646 273.006 54.6046 273.504 54.4846 273.984C54.3646 274.476 54.1546 274.908 53.8546 275.28C53.5666 275.652 53.1646 275.946 52.6486 276.162C52.1326 276.39 51.4786 276.504 50.6866 276.504C50.1946 276.504 49.7326 276.45 49.3006 276.342C48.8686 276.246 48.4906 276.084 48.1666 275.856C47.8426 275.64 47.5786 275.346 47.3746 274.974C47.1826 274.614 47.0746 274.164 47.0506 273.624H47.7346C47.7706 274.032 47.8726 274.38 48.0406 274.668C48.2086 274.956 48.4246 275.19 48.6886 275.37C48.9646 275.562 49.2706 275.7 49.6066 275.784C49.9426 275.868 50.3026 275.91 50.6866 275.91C51.3226 275.91 51.8506 275.814 52.2706 275.622C52.7026 275.43 53.0446 275.178 53.2966 274.866C53.5486 274.566 53.7226 274.218 53.8186 273.822C53.9266 273.438 53.9806 273.048 53.9806 272.652V270.528H53.9446C53.6206 271.212 53.1766 271.734 52.6126 272.094C52.0606 272.454 51.3886 272.634 50.5966 272.634C49.9126 272.634 49.3186 272.52 48.8146 272.292C48.3226 272.052 47.9086 271.728 47.5726 271.32C47.2486 270.9 47.0026 270.414 46.8346 269.862C46.6786 269.31 46.6006 268.71 46.6006 268.062C46.6006 267.45 46.6846 266.868 46.8526 266.316C47.0326 265.764 47.2906 265.284 47.6266 264.876C47.9626 264.456 48.3766 264.126 48.8686 263.886C49.3726 263.634 49.9486 263.508 50.5966 263.508C51.3286 263.508 52.0006 263.694 52.6126 264.066C53.2366 264.438 53.6806 264.966 53.9446 265.65H53.9806V263.724H54.6646ZM50.5966 264.102C50.0326 264.102 49.5406 264.216 49.1206 264.444C48.7126 264.672 48.3706 264.972 48.0946 265.344C47.8306 265.716 47.6266 266.142 47.4826 266.622C47.3506 267.09 47.2846 267.57 47.2846 268.062C47.2846 268.602 47.3506 269.118 47.4826 269.61C47.6266 270.09 47.8366 270.51 48.1126 270.87C48.4006 271.23 48.7486 271.518 49.1566 271.734C49.5766 271.938 50.0566 272.04 50.5966 272.04C51.1606 272.04 51.6526 271.932 52.0726 271.716C52.4926 271.5 52.8406 271.206 53.1166 270.834C53.4046 270.462 53.6146 270.042 53.7466 269.574C53.8906 269.094 53.9626 268.59 53.9626 268.062C53.9626 267.546 53.8906 267.048 53.7466 266.568C53.6146 266.088 53.4046 265.668 53.1166 265.308C52.8406 264.936 52.4926 264.642 52.0726 264.426C51.6526 264.21 51.1606 264.102 50.5966 264.102ZM58.8146 261.978V260.124H59.4986V261.978H58.8146ZM58.8146 272.976V263.724H59.4986V272.976H58.8146ZM67.048 264.318H65.032V270.78C65.032 271.152 65.074 271.446 65.158 271.662C65.242 271.878 65.368 272.046 65.536 272.166C65.716 272.274 65.926 272.34 66.166 272.364C66.418 272.388 66.706 272.394 67.03 272.382V272.976C66.682 273 66.34 273 66.004 272.976C65.68 272.94 65.392 272.85 65.14 272.706C64.888 272.55 64.684 272.322 64.528 272.022C64.384 271.722 64.324 271.308 64.348 270.78V264.318H62.638V263.724H64.348V260.844H65.032V263.724H67.048V264.318ZM76.4123 271.14H76.3763C76.2683 271.416 76.1123 271.68 75.9083 271.932C75.7043 272.172 75.4523 272.388 75.1523 272.58C74.8643 272.772 74.5343 272.922 74.1623 273.03C73.7903 273.138 73.3823 273.192 72.9383 273.192C71.9543 273.192 71.1923 272.982 70.6523 272.562C70.1123 272.13 69.8423 271.47 69.8423 270.582C69.8423 270.042 69.9503 269.604 70.1663 269.268C70.3823 268.92 70.6523 268.65 70.9763 268.458C71.3123 268.254 71.6783 268.11 72.0743 268.026C72.4823 267.942 72.8723 267.882 73.2443 267.846L74.3063 267.756C74.7983 267.72 75.1823 267.666 75.4583 267.594C75.7463 267.51 75.9623 267.402 76.1063 267.27C76.2503 267.126 76.3403 266.946 76.3763 266.73C76.4123 266.514 76.4303 266.244 76.4303 265.92C76.4303 265.668 76.3823 265.434 76.2863 265.218C76.1903 265.002 76.0403 264.81 75.8363 264.642C75.6323 264.474 75.3683 264.342 75.0443 264.246C74.7203 264.15 74.3243 264.102 73.8563 264.102C73.0283 264.102 72.3563 264.306 71.8403 264.714C71.3363 265.122 71.0603 265.74 71.0123 266.568H70.3283C70.3763 265.548 70.7003 264.786 71.3003 264.282C71.9123 263.766 72.7763 263.508 73.8923 263.508C75.0083 263.508 75.8183 263.73 76.3223 264.174C76.8383 264.606 77.0963 265.176 77.0963 265.884V271.266C77.0963 271.398 77.0963 271.53 77.0963 271.662C77.1083 271.794 77.1323 271.914 77.1683 272.022C77.2043 272.13 77.2643 272.22 77.3483 272.292C77.4323 272.352 77.5523 272.382 77.7083 272.382C77.8283 272.382 77.9963 272.364 78.2123 272.328V272.904C78.0323 272.952 77.8463 272.976 77.6543 272.976C77.3783 272.976 77.1563 272.94 76.9883 272.868C76.8323 272.796 76.7123 272.7 76.6283 272.58C76.5443 272.46 76.4843 272.322 76.4483 272.166C76.4243 271.998 76.4123 271.818 76.4123 271.626V271.14ZM76.4123 267.72C76.2443 267.924 75.9863 268.062 75.6383 268.134C75.3023 268.206 74.9243 268.26 74.5043 268.296L73.3523 268.404C73.0163 268.44 72.6803 268.494 72.3443 268.566C72.0083 268.626 71.7023 268.734 71.4263 268.89C71.1623 269.046 70.9463 269.262 70.7783 269.538C70.6103 269.802 70.5263 270.15 70.5263 270.582C70.5263 271.266 70.7423 271.776 71.1743 272.112C71.6063 272.436 72.2003 272.598 72.9563 272.598C73.7363 272.598 74.3543 272.46 74.8103 272.184C75.2663 271.896 75.6143 271.572 75.8543 271.212C76.0943 270.84 76.2443 270.486 76.3043 270.15C76.3763 269.802 76.4123 269.568 76.4123 269.448V267.72ZM81.9283 265.776H81.9823C82.0663 265.476 82.2163 265.194 82.4323 264.93C82.6603 264.666 82.9303 264.438 83.2423 264.246C83.5663 264.054 83.9203 263.91 84.3043 263.814C84.7003 263.706 85.1083 263.658 85.5283 263.67V264.354C85.1683 264.306 84.7543 264.342 84.2863 264.462C83.8303 264.582 83.3923 264.846 82.9723 265.254C82.8043 265.434 82.6543 265.608 82.5223 265.776C82.4023 265.944 82.3003 266.13 82.2163 266.334C82.1323 266.538 82.0663 266.766 82.0183 267.018C81.9703 267.27 81.9403 267.57 81.9283 267.918V272.976H81.2443V263.724H81.9283V265.776ZM88.386 261.978V260.124H89.07V261.978H88.386ZM88.386 272.976V263.724H89.07V272.976H88.386ZM99.3555 271.14H99.3195C99.2115 271.416 99.0555 271.68 98.8515 271.932C98.6475 272.172 98.3955 272.388 98.0955 272.58C97.8075 272.772 97.4775 272.922 97.1055 273.03C96.7335 273.138 96.3255 273.192 95.8815 273.192C94.8975 273.192 94.1355 272.982 93.5955 272.562C93.0555 272.13 92.7855 271.47 92.7855 270.582C92.7855 270.042 92.8935 269.604 93.1095 269.268C93.3255 268.92 93.5955 268.65 93.9195 268.458C94.2555 268.254 94.6215 268.11 95.0175 268.026C95.4255 267.942 95.8155 267.882 96.1875 267.846L97.2495 267.756C97.7415 267.72 98.1255 267.666 98.4015 267.594C98.6895 267.51 98.9055 267.402 99.0495 267.27C99.1935 267.126 99.2835 266.946 99.3195 266.73C99.3555 266.514 99.3735 266.244 99.3735 265.92C99.3735 265.668 99.3255 265.434 99.2295 265.218C99.1335 265.002 98.9835 264.81 98.7795 264.642C98.5755 264.474 98.3115 264.342 97.9875 264.246C97.6635 264.15 97.2675 264.102 96.7995 264.102C95.9715 264.102 95.2995 264.306 94.7835 264.714C94.2795 265.122 94.0035 265.74 93.9555 266.568H93.2715C93.3195 265.548 93.6435 264.786 94.2435 264.282C94.8555 263.766 95.7195 263.508 96.8355 263.508C97.9515 263.508 98.7615 263.73 99.2655 264.174C99.7815 264.606 100.039 265.176 100.039 265.884V271.266C100.039 271.398 100.039 271.53 100.039 271.662C100.051 271.794 100.075 271.914 100.111 272.022C100.147 272.13 100.207 272.22 100.291 272.292C100.375 272.352 100.495 272.382 100.651 272.382C100.771 272.382 100.939 272.364 101.155 272.328V272.904C100.975 272.952 100.789 272.976 100.597 272.976C100.321 272.976 100.099 272.94 99.9315 272.868C99.7755 272.796 99.6555 272.7 99.5715 272.58C99.4875 272.46 99.4275 272.322 99.3915 272.166C99.3675 271.998 99.3555 271.818 99.3555 271.626V271.14ZM99.3555 267.72C99.1875 267.924 98.9295 268.062 98.5815 268.134C98.2455 268.206 97.8675 268.26 97.4475 268.296L96.2955 268.404C95.9595 268.44 95.6235 268.494 95.2875 268.566C94.9515 268.626 94.6455 268.734 94.3695 268.89C94.1055 269.046 93.8895 269.262 93.7215 269.538C93.5535 269.802 93.4695 270.15 93.4695 270.582C93.4695 271.266 93.6855 271.776 94.1175 272.112C94.5495 272.436 95.1435 272.598 95.8995 272.598C96.6795 272.598 97.2975 272.46 97.7535 272.184C98.2095 271.896 98.5575 271.572 98.7975 271.212C99.0375 270.84 99.1875 270.486 99.2475 270.15C99.3195 269.802 99.3555 269.568 99.3555 269.448V267.72ZM104.187 263.724H104.871V265.704H104.907C105.027 265.356 105.195 265.05 105.411 264.786C105.639 264.51 105.897 264.276 106.185 264.084C106.485 263.892 106.809 263.748 107.157 263.652C107.505 263.556 107.859 263.508 108.219 263.508C108.759 263.508 109.215 263.574 109.587 263.706C109.971 263.838 110.283 264.012 110.523 264.228C110.763 264.444 110.949 264.69 111.081 264.966C111.225 265.23 111.327 265.5 111.387 265.776C111.447 266.052 111.483 266.322 111.495 266.586C111.507 266.838 111.513 267.06 111.513 267.252V272.976H110.829V267.126C110.829 266.898 110.811 266.61 110.775 266.262C110.739 265.914 110.631 265.584 110.451 265.272C110.283 264.948 110.019 264.672 109.659 264.444C109.311 264.216 108.825 264.102 108.201 264.102C107.673 264.102 107.205 264.198 106.797 264.39C106.389 264.582 106.041 264.852 105.753 265.2C105.465 265.536 105.243 265.944 105.087 266.424C104.943 266.892 104.871 267.408 104.871 267.972V272.976H104.187V263.724Z" fill="black"/>
<path fill-rule="evenodd" clip-rule="evenodd" d="M73.8132 384.421L61.1038 366.943L74.568 383.85C74.7228 384.043 74.6816 384.33 74.4754 384.493C74.2701 384.654 73.9789 384.628 73.825 384.437C73.8205 384.432 73.8166 384.427 73.8132 384.421Z" fill="#010202"/>
<path d="M73.8973 383.729C74.6008 384.628 75.2488 392.516 75.2488 392.516C75.2488 392.516 79.8603 387.3 80.9004 379.987C81.9388 372.673 80.5217 371.695 79.2914 367.981C78.0611 364.267 72.8707 359.478 70.2148 358.163C68.2996 357.215 62.1666 355.06 58.8443 353.915C57.6477 353.505 56.2987 354.181 55.8738 355.397C53.9012 361.048 53.5268 367.093 55.1534 372.658C56.1186 375.957 57.7781 379.074 60.6165 380.601C60.6165 380.601 67.2275 383.897 71.6294 383.063C76.0297 382.23 75.2202 390.629 75.2202 390.629" stroke="#010202" stroke-width="0.5" stroke-linecap="round" stroke-linejoin="round"/>
<path fill-rule="evenodd" clip-rule="evenodd" d="M68.9257 399.774L65.5478 400.365L62.4073 398.972L58.989 398.725L56.2684 396.609L53.0067 395.539L50.8651 392.824L47.9509 390.994L46.5111 387.838L44.1128 385.353L43.4597 381.937L41.7178 378.943L41.8886 375.469L40.9032 372.138L41.8878 368.807L41.7178 365.334L43.4597 362.338L44.1128 358.924L46.5111 356.439L47.9501 353.283L50.8651 351.452L53.0067 348.736L56.2684 347.667L58.989 345.551L62.4073 345.305L65.5478 343.911L68.9257 344.502L72.3035 343.911L75.444 345.305L78.8623 345.551L81.5829 347.667L84.8446 348.737L86.9862 351.453L89.9004 353.283L91.3402 356.439L93.7386 358.923L94.3916 362.339L96.1335 365.334L95.9627 368.807L96.9481 372.138L95.9635 375.469L96.1335 378.943L94.3916 381.938L93.7386 385.352L91.3402 387.837L89.9012 390.994L86.9862 392.825L84.8446 395.54L81.5829 396.609L78.8623 398.725L75.444 398.972L72.3035 400.365L68.9257 399.774Z" stroke="black" stroke-width="0.5"/>
<path d="M45.755 455.292H45.791L50.237 443.124H51.029L46.223 455.976H45.305L40.517 443.124H41.345L45.755 455.292ZM53.2631 451.44V451.548C53.2631 452.088 53.3351 452.604 53.4791 453.096C53.6231 453.588 53.8331 454.02 54.1091 454.392C54.3971 454.764 54.7511 455.058 55.1711 455.274C55.6031 455.49 56.1011 455.598 56.6651 455.598C57.5891 455.598 58.3211 455.358 58.8611 454.878C59.4011 454.386 59.7731 453.708 59.9771 452.844H60.6611C60.4571 453.924 60.0131 454.752 59.3291 455.328C58.6571 455.904 57.7631 456.192 56.6471 456.192C55.9631 456.192 55.3631 456.072 54.8471 455.832C54.3431 455.58 53.9171 455.244 53.5691 454.824C53.2331 454.392 52.9811 453.888 52.8131 453.312C52.6451 452.724 52.5611 452.094 52.5611 451.422C52.5611 450.774 52.6451 450.156 52.8131 449.568C52.9931 448.968 53.2571 448.446 53.6051 448.002C53.9531 447.546 54.3851 447.186 54.9011 446.922C55.4291 446.646 56.0471 446.508 56.7551 446.508C57.4031 446.508 57.9731 446.628 58.4651 446.868C58.9691 447.108 59.3891 447.438 59.7251 447.858C60.0611 448.266 60.3131 448.746 60.4811 449.298C60.6611 449.838 60.7511 450.42 60.7511 451.044C60.7511 451.104 60.7451 451.176 60.7331 451.26C60.7331 451.332 60.7331 451.392 60.7331 451.44H53.2631ZM60.0491 450.846C60.0251 450.342 59.9411 449.868 59.7971 449.424C59.6531 448.968 59.4371 448.572 59.1491 448.236C58.8731 447.888 58.5311 447.612 58.1231 447.408C57.7271 447.204 57.2711 447.102 56.7551 447.102C56.2031 447.102 55.7171 447.21 55.2971 447.426C54.8771 447.63 54.5231 447.906 54.2351 448.254C53.9471 448.59 53.7251 448.986 53.5691 449.442C53.4131 449.898 53.3171 450.366 53.2811 450.846H60.0491ZM71.9471 446.724V455.49C71.9471 456.006 71.8871 456.504 71.7671 456.984C71.6471 457.476 71.4371 457.908 71.1371 458.28C70.8491 458.652 70.4471 458.946 69.9311 459.162C69.4151 459.39 68.7611 459.504 67.9691 459.504C67.4771 459.504 67.0151 459.45 66.5831 459.342C66.1511 459.246 65.7731 459.084 65.4491 458.856C65.1251 458.64 64.8611 458.346 64.6571 457.974C64.4651 457.614 64.3571 457.164 64.3331 456.624H65.0171C65.0531 457.032 65.1551 457.38 65.3231 457.668C65.4911 457.956 65.7071 458.19 65.9711 458.37C66.2471 458.562 66.5531 458.7 66.8891 458.784C67.2251 458.868 67.5851 458.91 67.9691 458.91C68.6051 458.91 69.1331 458.814 69.5531 458.622C69.9851 458.43 70.3271 458.178 70.5791 457.866C70.8311 457.566 71.0051 457.218 71.1011 456.822C71.2091 456.438 71.2631 456.048 71.2631 455.652V453.528H71.2271C70.9031 454.212 70.4591 454.734 69.8951 455.094C69.3431 455.454 68.6711 455.634 67.8791 455.634C67.1951 455.634 66.6011 455.52 66.0971 455.292C65.6051 455.052 65.1911 454.728 64.8551 454.32C64.5311 453.9 64.2851 453.414 64.1171 452.862C63.9611 452.31 63.8831 451.71 63.8831 451.062C63.8831 450.45 63.9671 449.868 64.1351 449.316C64.3151 448.764 64.5731 448.284 64.9091 447.876C65.2451 447.456 65.6591 447.126 66.1511 446.886C66.6551 446.634 67.2311 446.508 67.8791 446.508C68.6111 446.508 69.2831 446.694 69.8951 447.066C70.5191 447.438 70.9631 447.966 71.2271 448.65H71.2631V446.724H71.9471ZM67.8791 447.102C67.3151 447.102 66.8231 447.216 66.4031 447.444C65.9951 447.672 65.6531 447.972 65.3771 448.344C65.1131 448.716 64.9091 449.142 64.7651 449.622C64.6331 450.09 64.5671 450.57 64.5671 451.062C64.5671 451.602 64.6331 452.118 64.7651 452.61C64.9091 453.09 65.1191 453.51 65.3951 453.87C65.6831 454.23 66.0311 454.518 66.4391 454.734C66.8591 454.938 67.3391 455.04 67.8791 455.04C68.4431 455.04 68.9351 454.932 69.3551 454.716C69.7751 454.5 70.1231 454.206 70.3991 453.834C70.6871 453.462 70.8971 453.042 71.0291 452.574C71.1731 452.094 71.2451 451.59 71.2451 451.062C71.2451 450.546 71.1731 450.048 71.0291 449.568C70.8971 449.088 70.6871 448.668 70.3991 448.308C70.1231 447.936 69.7751 447.642 69.3551 447.426C68.9351 447.21 68.4431 447.102 67.8791 447.102ZM82.073 454.14H82.037C81.929 454.416 81.773 454.68 81.569 454.932C81.365 455.172 81.113 455.388 80.813 455.58C80.525 455.772 80.195 455.922 79.823 456.03C79.451 456.138 79.043 456.192 78.599 456.192C77.615 456.192 76.853 455.982 76.313 455.562C75.773 455.13 75.503 454.47 75.503 453.582C75.503 453.042 75.611 452.604 75.827 452.268C76.043 451.92 76.313 451.65 76.637 451.458C76.973 451.254 77.339 451.11 77.735 451.026C78.143 450.942 78.533 450.882 78.905 450.846L79.967 450.756C80.459 450.72 80.843 450.666 81.119 450.594C81.407 450.51 81.623 450.402 81.767 450.27C81.911 450.126 82.001 449.946 82.037 449.73C82.073 449.514 82.091 449.244 82.091 448.92C82.091 448.668 82.043 448.434 81.947 448.218C81.851 448.002 81.701 447.81 81.497 447.642C81.293 447.474 81.029 447.342 80.705 447.246C80.381 447.15 79.985 447.102 79.517 447.102C78.689 447.102 78.017 447.306 77.501 447.714C76.997 448.122 76.721 448.74 76.673 449.568H75.989C76.037 448.548 76.361 447.786 76.961 447.282C77.573 446.766 78.437 446.508 79.553 446.508C80.669 446.508 81.479 446.73 81.983 447.174C82.499 447.606 82.757 448.176 82.757 448.884V454.266C82.757 454.398 82.757 454.53 82.757 454.662C82.769 454.794 82.793 454.914 82.829 455.022C82.865 455.13 82.925 455.22 83.009 455.292C83.093 455.352 83.213 455.382 83.369 455.382C83.489 455.382 83.657 455.364 83.873 455.328V455.904C83.693 455.952 83.507 455.976 83.315 455.976C83.039 455.976 82.817 455.94 82.649 455.868C82.493 455.796 82.373 455.7 82.289 455.58C82.205 455.46 82.145 455.322 82.109 455.166C82.085 454.998 82.073 454.818 82.073 454.626V454.14ZM82.073 450.72C81.905 450.924 81.647 451.062 81.299 451.134C80.963 451.206 80.585 451.26 80.165 451.296L79.013 451.404C78.677 451.44 78.341 451.494 78.005 451.566C77.669 451.626 77.363 451.734 77.087 451.89C76.823 452.046 76.607 452.262 76.439 452.538C76.271 452.802 76.187 453.15 76.187 453.582C76.187 454.266 76.403 454.776 76.835 455.112C77.267 455.436 77.861 455.598 78.617 455.598C79.397 455.598 80.015 455.46 80.471 455.184C80.927 454.896 81.275 454.572 81.515 454.212C81.755 453.84 81.905 453.486 81.965 453.15C82.037 452.802 82.073 452.568 82.073 452.448V450.72ZM86.905 446.724H87.589V448.704H87.625C87.745 448.356 87.913 448.05 88.129 447.786C88.357 447.51 88.615 447.276 88.903 447.084C89.203 446.892 89.527 446.748 89.875 446.652C90.223 446.556 90.577 446.508 90.937 446.508C91.477 446.508 91.933 446.574 92.305 446.706C92.689 446.838 93.001 447.012 93.241 447.228C93.481 447.444 93.667 447.69 93.799 447.966C93.943 448.23 94.045 448.5 94.105 448.776C94.165 449.052 94.201 449.322 94.213 449.586C94.225 449.838 94.231 450.06 94.231 450.252V455.976H93.547V450.126C93.547 449.898 93.529 449.61 93.493 449.262C93.457 448.914 93.349 448.584 93.169 448.272C93.001 447.948 92.737 447.672 92.377 447.444C92.029 447.216 91.543 447.102 90.919 447.102C90.391 447.102 89.923 447.198 89.515 447.39C89.107 447.582 88.759 447.852 88.471 448.2C88.183 448.536 87.961 448.944 87.805 449.424C87.661 449.892 87.589 450.408 87.589 450.972V455.976H86.905V446.724Z" fill="black"/>
<defs>
<clipPath id="clip0_126_5495">
<rect width="46.42" height="35.9755" fill="white" transform="translate(44.79)"/>
</clipPath>
</defs>
</svg>
